<svg
    width="24"
    height="24"
    viewBox="0 0 24 24"
    fill="none"
    xmlns="http://www.w3.org/2000/svg"
>
    <path
        fill-rule="evenodd"
        clip-rule="evenodd"
        d="M3.45672 6.7039C3 7.80653 3 9.20435 3 12C3 14.7956 3 16.1935 3.45672 17.2961C4.06569 18.7663 5.23373 19.9343 6.7039 20.5433C7.80653 21 9.20435 21 12 21C14.7956 21 16.1935 21 17.2961 20.5433C18.7663 19.9343 19.9343 18.7663 20.5433 17.2961C21 16.1935 21 14.7956 21 12C21 9.20435 21 7.80653 20.5433 6.7039C19.9343 5.23373 18.7663 4.06569 17.2961 3.45672C16.1935 3 14.7956 3 12 3C9.20435 3 7.80653 3 6.7039 3.45672C5.23373 4.06569 4.06569 5.23373 3.45672 6.7039ZM17.625 12C17.625 15.1066 15.1066 17.625 12 17.625C8.8934 17.625 6.375 15.1066 6.375 12C6.375 8.8934 8.8934 6.375 12 6.375C13.3361 6.375 14.5635 6.84086 15.5284 7.61901L12.1621 12.1074L10.8505 10.5335C10.5762 10.2043 10.087 10.1599 9.75783 10.4342C9.42865 10.7085 9.38417 11.1977 9.65849 11.5269L11.5981 13.8545C11.9187 14.2392 12.5144 14.2239 12.8148 13.8233L16.6053 8.76935C17.2478 9.68355 17.625 10.7977 17.625 12Z"
        fill="#9397AD"
    />
</svg>
