<svg xmlns="http://www.w3.org/2000/svg" width="213" height="50" viewBox="0 0 56.356 13.229"><g aria-label="让她那里水流不止" style="font-style:normal;font-weight:400;font-size:13.9764328px;line-height:1.25;font-family:sans-serif;letter-spacing:0;word-spacing:0;fill:#000;fill-opacity:1;stroke:none;stroke-width:.3494108"><g aria-label="纯草本中药，一粒下去又硬又CU！" style="font-style:normal;font-weight:400;font-size:10.58333302px;line-height:1.25;font-family:sans-serif;letter-spacing:0;word-spacing:0;fill:#000;fill-opacity:1;stroke:none;stroke-width:.09244827"><path d="M15.459 291.49v.057h.34v-.051zm-1.122-.123v.056q.496.062.615.062.036 0 .734-.051l.005-.052zm-1.266-1.08-.01.34q.093 0 .604.512l.223.114.005-.057q-.78-.48-.765-.91zm-.212-.564-.005.114q0 .057.057.057l-.062.108-.005.228q.015.113.113.113h.052l.005-.057q.01-.392-.103-.392l.057-.114.005-.057zm-2.754-.248q1.163.119 1.282.517-.01.434-1.375.832-1.87 1.111-2.279 1.111-.475-.005-.822-1.08l.455.005v-.057q-.098 0-.501-.17v-.057h.279q.005-.114-.165-.114l.005-.057q.604.005 2.95-.93zm2.76.02-.006.171h.057l.005-.17zm.971-.495-.005.108q.088.005.232-.222h-.113q-.114.016-.114.114zm1.974-.212q-.005.196-.806.729h-.057l.005-.114h-.057l-.17.108h-.057v-.056q.062-.109.062-.166-.31.166-.512.16l.176-.279q-.511.207-.517.28v.113q-.025.956.538.961.093.057.279.057l.34.005q.926.005.972-.501-.01-1.297-.196-1.297zm-6.093-1.85q-.925 1.044-.93 1.116h.228q.005-.217.76-1.116zm.093.9-.005.056q.45-.165.569-.165.279.113.666.46v-.057q-.429-.89-.418-1.246-.057 0-.812.951zm.486-1.463q-.351.522-.351.62.175-.109.408-.62zm1.638-.099q.104.228.104.398l-.068.28q.212.583.259.96h.227l.02-.899-.035-.677h-.228zm-3.105.316-.006.056h.057q.765-.279.801-.387v-.057q-.765.388-.852.388zm5.085-.58-.047 1.69q1.075-.134 1.08-.387.186-.656.191-.785.005-.14-.439-.512l.005-.057h-.113zm-2.533-.19q-.005.113-.237.392.263-.108.511-.108.005-.078-.274-.284zm.874-1.122.113.057.109.005.01-.227h-.057q-.082 0-.175.165zm1.297-2.3q.45.91.878.91.222.155.222.284-.237.44-.3.62 1.014.135.998.74-.243.671-.418.899.428-.28.625-.28h.057q1.007.176.992.802l-.005.222q-.445.465-.6 1.349v.113q.15 0 .424-1.126l.114.005-.006.051q-.015.564-.61 1.799.135.005.378.796h.057q-.104-.548-.098-.62v-.057h.056q.207.63.207.733h.057v-.056q-.052-.197-.052-.228l.005-.057.057.005q.264.796 1.034 1.416l-.005.057q-.016.724-.987 1.116-1.86-.129-2.476-.134-1.126-.005-1.131.274h-.057q-.78-.227-.77-.739-.217-.393-.202-.848.093-.005.408-.5l.016-.678-.739.217q-.202 0-.718-.625-.005.248-1.644.44-.997.495-1.25.495-.48-.17-.879-.966.016-.522.925-.894.543-.238 1.277-1.338l-.057-.005q-.873 1.007-1.323 1.007-1.003-.48-.992-.858.486-.537.987-1.173.269-.408 1.013-2.19.232-.202.237-.337l.393.005.563-.051q.543.775.538 1.018-.868.77-1.328 1.343.847-.222.858-.444.553.227.832.403v-.057q-.057 0-.052-.057.77-.728 1.426-.723l-.041-.563.005-.228q0-.03-.33-.336l.004-.113q.538-.786.584-.786l.73.005zM25.536 289.811v.052l1.648-.031v-.052zm.821-.279v.052l.662-.01v-.052zm-.325-.098v.052l.325-.005q.042 0 .33-.057v-.057l-.216.005q-.052 0-.44.062zm-5.933-.264v.052l.114-.005q.62-.326.713-.326 0-.103-.114-.103-.656.377-.713.382zm1.426-.134-.108.005q-.388-.098-.44-.098-.77.34-.821.537h.057q2.361-.356 2.522-.408v-.057q-.052-.31-.166-.31-.899.33-1.044.33zm2.145-.615v.057q.202-.005.33.098v-.052l-.165-.103zm1.809-.083q-.269.372-.605.377l-.274.005q-.263.005-.548-.144.109.17.109.31 1.018-.067 1.483-.078l.548-.01v-.052q-.419-.413-.713-.408zm.057-.155v.104q.18-.005.273.046h.057v-.052q-.294-.103-.33-.098zm-3.68-2.036v.207h.057q.253-.005 1.592-.238.987.207.987.403v.104q0 .222-1.318.496-.553.325-.879.33l-.217.005.052.259q.217 0 1.922-.398.099-.005.497.15.093-.197.165-.74-.057-.847-.165-1.048-.646.062-2.693.47zm1.592-1.292v.052h.165v-.103q-.103.051-.165.051zm-.383-1.359q0 .264-.661.75v-.212q-.44.01-.44.532l-.216.635.108.052q1.426-.238 1.426-.553-.372.217-.656.222l-.382.005v-.051q.454-.005 1.26-.806-.382-.078-.382-.574zm1.81-2.129q.909-.015 1.1.77 0 .119-.33.424l.273-.005q.232-.005.661-.17 1.153.315 1.153.924v.052q-.078.636-.383.64l-.553-.046q-.635.17-.821.176.439-.336.439-.377-.057 0-.165-.052-.507.326-.605.326.388-.341.388-.372-.729.01-1.044.645-.44.31-.44.378.378-.114.657-.114l.057-.005q.76-.01 1.152 1.349-.496.325-.496 1.002-.067.005-.326 1.215.16 0 .44.098h.051v-.052l-.217-.051v-.052h.052q2.305.49 2.305 1.22 0 .397-.6.692-.062 0-.165-.047-1.525-.025-2.527-.01l-.93.016v.366q0 .512.108 1.943 0 .249-.987.91-.403-.429-.661-1.039.108-.175.108-.32v-.052l-.051-.103q.165 0 .165-.109v-1.364q-.155.005-.661.17-.192-.051-.218-.051-1.87.367-1.87.558v.052q.584-.269 1.87-.553l.052-.005v.057q-.558.113-2.082.61-.993-.238-.993-.926 0-.16.057-.16 1.623-1.183 1.866-1.188v-.052l-.166-.207v-.052q0-.242.331-.532v-.052q0-.599-.713-2.3v-.05q0-.197.548-.378-.052-.207-.052-.367-.48.326-.827.33h-.051q-.527.011-.993-.924-.051-.088-.051-.264.103-.113.987-.49v.051l-.057.109.114-.005-.057.108h.108l.77-.227v-.104q0-.511-.439-.935v-.057h.274v-.057l-.109.005v-.051l.166-.005v-.052l-.057-.103q.041 0 .33-.062l-.056-.104v-.052l.222-.005q.961-.015 1.318 1.137.284-.062.325-.062.098.01.44.259v-.109q.222.104.387.098l-.387-.304.056-.005q.099.051.217.051-.108-.129-.108-.155l.274.047.604-.01.274-.057v-.316q0-.403-.49-.568.764-.486 1.038-.491zm.77 2.661q0 .109-.11.109h-.056q.02-.103.113-.103zm.33.104v.051h-.109v-.051zM34.698 289.852q.005.13-.093 1.106l.005.17h.057l.093-1.162v-.119zm-.352-.17.026 1.22q.114 0 .16-.585-.062-.304-.067-.578v-.057zm.765-2.568.026 1.276q.072 0 .579-.067.372.108.47.108-1.013-1.317-1.075-1.317zm-1.57-.031q-.016.48-.952 1.819l.057-.005q.987-.109.982-.248l-.03-1.566zm-.011-.641q-.408.914-.667 1.638h.057q.45-.75.667-1.581v-.057zm-1.866-.083.006.176q.692-.357.692-.419H32.3q-.072 0-.636.243zm3.938-.94v.056l1.339-.02q.113 0 .113-.12l-.29.006q-.376.005-1.162.077zm.75-.362v.057l.578-.01v-.057zm-.238-.17v.061q.119-.005.119.052l.113-.057.295-.005-.005-.119q-.31.068-.522.068zm-3.163-1.163.119-.005v.062h-.119zm2.79-.166q0 .135-.284.527l.76-.01-.005-.062q-.103-.227-.47-.455zm.052-.175.006.118q.062-.005.175.052l-.005-.057zm-1.25-1.489q.072 0 .894.915.103-.005.475.512.026 0 .233.056-.005-.119-.176-.113l-.005-.057h.062q.713.098 1.643.842.295.295.3.517l.005.232q.01.6-.858.714h-.175q-.491.01-1.453.082 2.59 2.383 4.067 2.951.755.455.998.45l.005.056-.584.01v.057q.527.109.527.223l-.057.005q-.465.005-1.106-.042h-.056v.057q.47.109.583.109v.057l-.868.015v.057l.409.052v.062q-.285.005-.698.067l.005.057q.507.051.579.051l.005.057q-.418.005-1.095.486-.31.005-1.422-1.2.006.233-.17.239-1.07.077-1.333.082l-.057.114.03 1.628q.016.697-1.069 1.643-.723-1.24-.734-1.788 0-.052.109-.465l-.067-.29q.175-.004.17-.294l-.005-.232h-.057l-.925.31q-.367-.037-.822-.336-.63.558-.8.65l-.057.006q-.006-.176-.12-.176 0 .119-.113.119h-.062v-.057q.057-.114.057-.176-.222.181-.522.187.227-.264.227-.295-.294.176-.578.18l-.465.011v-.057q1.209-.496 2.444-2.832.45-.775.444-1.054h-.057q-.558.3-.749.305-.6-.227-.708-.568-.005-.078-.13-.636.88-1.142 1.711-1.716.347-.237.46-.242-.971.837-.971.888h.057l.92-.6h.113q-1.023.683-1.08 1.009.682-.243 1.674-.496l-.005-.29q-.248-.692-.253-1.039l.052-.294h.057l.067.29.113-.063q-.186-.542-.186-.635l.29.056.057-.118v-.12l-.062-.113.289.052.295-.005q.289-.005.284-.12zM43.684 286.132l-.113.005q.129.734.134.966l.114-.005.005.062-.114.005v.057l.284.041.006.057q-.233.01-.228.124h.057q.32-.016 1.597-.18l-.026-1.432zm3.83-.564-.517.021q-.114.026-.114.119l.031 1.318h.057q1.483-.135 1.483-.238l.202-1.21-.517-.092q-.388.072-.625.082zm-1.98-3.922q1.55.15 1.56.501-.221.274-.19 1.788l.015.683q1.71-.243 2.393-.559 1.323.29 1.333.801v.057q.01.295-.594 1.458-.109.34-.104.578.207.099.295.331-.212.868-.842.894-.285.016-.688-.026-.646.083-1.488.12l-.284.015.072 3.43q.02.843-1.116 1.308l-.17.005q-.641-.336-.657-1.23.326-.702.315-1.214.047-.45.031-1.38l-.02-.739h-.057q-.563.026-2.279.496-.388.021-.93-.702v-.057q-.005-.13.212-.584-.005-.398-.558-1.98-.01-.666 1.359-.914l.17-.01q.233.103.238.336 1.514-.181 1.767-.248l-.01-.574q-.031-1.478-.217-2.052zM58.056 290.958l.118-.005v.062h-.118zm-2.197-.542q1.101.155 1.101.382v.176q-.026.238-1.158.6-1.617.955-1.912.96-.584.01-.81-.852l.345-.005v-.062q-.31-.109-.346-.109v-.062h.233v-.057l-.233-.056v-.052q.667-.01 2.548-.801.03 0 .232-.062zm4.977-.202q0 .243-.057.64v.166h.057q0-.237.062-.63v-.176zm-.114-.635q0 .377-.114 1.333.17-.005.17-.76v-.573zm-5.385-1.122-.692.822v.062q.17-.005.517-.59.041 0 .232-.294zm.58-.589q0 .103-.233.47h.056l.233-.413v-.057zm-1.215.253q.749-.305.749-.418-.75.305-.75.418zm4.284-3.312v.057q.108 0 .108-.109v-.057q-.108.016-.108.109zm-2.786 1.209q.512-.093 1.339-1.013v-.062q-.346.01-.388-.429h-.057q0 .202-.553.672l-.051.005q0-.17-.057-.17-.31.005-.45.217.083.072.166.315.051 0 .108-.01l.02.061h-.072l.114.233q-.072 0-1.157 1.178.656-.186.754-.361.569-.01.982.62.48-.755.687-1.323-.315.165-.542.17.222-.253.222-.284l-.052.005q-.32.212-.987.233zm-1.68-.114q-.402.269-.697.274h-.165q-.946-.682-.946-1.312.233-.238.946-.517.015-.109.108-.114v.057l-.108.165q.108 0 .108.166.543-.228.78-.233 0-.94-.335-1.163-.083.005-.166-.217l.331-.005-.108-.165h.17l-.062-.108q.336-.083.336-.176-.057 0-.057-.057l.109-.052.17-.005q.946-.015 1.22 1.365-.052 0-.052.056l.553-.062q.13-.005.33.16v-.113l.388.108q0-.036-.33-.33h.051q.099.056.228.051l-.228-.222q.383.052.502.104.723-.068.723-.176v-.336q0-.6-.553-.765v-.057q.982-.511 1.111-.516 1.106.19 1.106.863 0 .33-.33.62l-.063.113q.58-.072 1.003-.237 1.168.33 1.168.971v.17q0 .517-.388.667l-.393-.041q-.217 0-.997.18l-.057.006v-.062q.15 0 .496-.341l-.108-.052-.109.005-.666.455h-.057l.553-.512h-.052q-.672.01-.78.517-.026.026-.047.052.135.067.295.237v.114q0 .212-.465.76h.057q1.276-.31 1.679-.548 1.385.434 1.385.785.351.3.351.574-.48.005-1.22 4.878-.557.879-1.327.89-.181-.006-.636-.735l-.692-.687h.051q.114.057.176.057h.062v-.062q-.29.005-.698-.33h.057q.46.165.579.16-.806-.486-.806-.564h.052q1.436.377 1.855.372.423-.45.635-3.545v-.34q-2.894.568-2.894.795h-.056v.062h.056q.414-.067.466-.067 1.333.325 1.333 1.08-.45.93-1.044.94h-.062q-.305.005-.403-.222l.114-.005-.29-.222.29-.005v-.062q-.295.005-.342-.166l.171-.005v-.051q-.202-.057-.233-.057v-.062q.29-.047.29-.176v-.057q-.465-.356-.465-.8.062 0 .062-.063-.207-.056-.233-.056 0 .062-.057.062v-.062l.057-.114-.119.062-.227.005v-.062h.114v-.057l-.057.005q-.517.005-1.1.94-.073 0-.347.409h.057l.403-.124q.444.165.754.568v.176q0 .403-1.85.672-.506.351-.754.356h-.057q-.367.005-.811-.682v-.17q0-.362 1.157-.946l.693-.878h-.057q-.724.821-1.1.826-.43.01-.926-.563v-.176q.94-.754 1.442-2.242zM66.494 289.677l.067.02q.414.099.517.481l.031.093-.005.248-.026.047q-.103.604-.558 1.033-.263.253-1.039.553.285-.372.362-.512.083-.14.181-.372-.517-.02-.656-.537l-.021-.036.005-.248q.016-.057.026-.057.114-.532.672-.677l.108-.031zM88.866 285.832q.765.382.775.522v.475q-.134.713-.594.724-.94-.16-1.55-.15l-.295.005q-3.56.062-6.429 1.302-.408-.093-1.075-1.173v-.057q0-.413 1.075-.914.238.088.238.175-.119.021-.119.12h.057q2.517-.518 7.917-1.03zM10.384 301.846v.832h.062v-.832zm-.119-.652v.12q0 .475-.057 1.131v.057h.057q.062-.181.119-1.432-.119.021-.119.124zm4.046-.253v.062l.124-.005v-.057zm-6.547 1.721q.553.29 1.37.455.3-.005.3-1.55v-.538q-1.055 1.158-1.67 1.633zm2.977-3.917v1.189l.418-.068h.176q.625-.01.837 1.117-.119.237-.119.418l.057-.005q.863-.191 1.132-.196v-.12q-.713-.154-.713-.702 0-.3-.538-.884l.3-.005-.062-.118q.119 0 .119-.12-.057 0-.057-.056.294-.005.294-.124-.826.01-1.007-.522l-.062.005q-.584.186-.775.191zm1.963.202v.062q.837-.016 1.075.754.057.103.057.238v.532q-.093.537-.532.548v.057h.119l.594-.073v-.057l-.3.005q1.013-.76 1.013-2.04-.083-.006-.238-.295.269-.109.476-.424h-.12q-.63.01-2.144.692zm-1.901-3.122v.538h.056q0-.12.181-.419l-.062-.3q-.082 0-.175.181zm-3.277-.356.12-.005q0 .206.774.878.088 0 .538-.124v.057q-.062.119-.062.18.03 0 .18-.123v.062l-.118.3h.057l.18-.124v.118q-.062.114-.062.181l.12-.062h.061v.057q-.067.656-1.013.672-1.07-.207-1.07-.811 0-.435.295-1.256zm1.845-1.106h.062q1.545.31 1.545 1.044l.12.057q.31-.3.537-.305.635.578.832.816 0 .491-1.427 1.277h-.062l-.237-.114v.238l.237-.062q.538.129.657.284.553-.305 1.25-.558l-.062.119q.124.02.124.118-.124.021-.124.12h.124q.259-.006 1.664-.27v-.056q-.201 0-.537-.17-.744.134-.832.134h-.057v-.057q.548-.248.594-.248v-.062q0-.12-.119-.12l-.062.006q-.444.305-.594.305 0-.12.537-.367v-.119l-.3.067.238-.243q-.103-.056-.237-.056v-.057l.18-.005q0-.135-.718-.347v-.056q.176-.005.3-.243l-.18-.238q.211 0 1.25-.14 1.013.331 1.013 1.174 0 .356-.414.842l.057-.005q.801-.13 1.25-.315.466.165.895.697v.057q0 .687-1.075.853v.062q.361.072.718.46-.083.485-1.132 1.984v.062q.057 0 .057-.062l.238.057q.904-.315 1.075-.315l.175-.005q.776.635.776 1.235-.109.367-.419.604-.786-.165-2.558-.196-1.426.026-3.095.77-.538-.109-.538-.703v-.837q0-.119-.356-.17v2.082q0 .935-1.189 1.39H9.49q-.093.005-.889-1.054-.367-.233-.418-.233v-.056l.175-.005q.12.056.181.056 0-.103-.656-.284l-.176-.176h.057q.269.114.656.166h.062v-.062q-.997-.46-1.25-.455-.3-.269-.3-.827 2.015-1.83 2.44-2.718h-.058q-.692.191-1.55.501-.357.005-.832-.578 0-.559.95-1.029 0-.062.063-.062.015.12.119.12l-.062.118v.057q1.42-.383 1.431-.502 0-2.496-.537-2.485h-.12l-.118.062v-.181l-.057.005q0 .176-.243.357v-.057q0-.491.894-.967.021-.118.12-.124zm3.633 2.496v.062h-.119v-.057zM25.241 297.66q1.674.475 1.674 1.281v.274q-.057.657-.635.667-.574-.212-.693-.207-.3.057-.573.062l.113-.165v-.052h-.113l.113-.165h-.113l.056-.274-.118.005.118-.165v-.114l-.522-.59v-.056l.29-.165-.057-.109.29-.062-.057-.108q.227 0 .227-.057zm1.039-2.75q1.963.223 1.963 1.06.114 0 .114.269 0 .563-1.095.728-.951-.093-1.902-.072-.538.01-1.447.134v.052q.408.031.408.16v.052q-.232.186-.232 1.643v1.256q0 1.06.056 2.946 0 .511-1.209.95h-.057q-.454.01-.692-.806v-.382q.346-.196.346-1.21v-.816q-.046-3.493-.29-3.488-2.247.692-2.366.698h-.176q-.351.005-.687-1.297 0-.15.863-.89h.057l-.057.11q.114 0 .114.108l.118-.057h.057l-.119.165v.052h.176q1.959-.362 3.922-.615 2.104-.31 2.367-.424v-.057q-.201-.051-.232-.046v-.057l.175-.005v-.052q-.175 0-.175-.108zM35.917 302.88v.056h.109v-.057zm-2.051-.574h.051q.559-.233 1.168-.243.14 0 .553.103v-.057q0-.14-.775-.816-.072 0-.997 1.012zm1.106-1.127.279.052h.057v-.057q-.088 0-.223-.109-.113.021-.113.114zm-1.995-.465v.057h.114v-.057zm4.49-.63v.056l1.608-.03v-.058zm.776-.29v.052l.666-.01.057-.11h-.057q-.392.063-.666.068zm-.222-.165v.056l.387-.005.28-.062v-.056l-.388.01zm-5.488-.843.113-.005v.057h-.113zm2.216-.372q-.051.688-.051.719.108 0 .108-.114v-.61zm2.662-.268.113-.005v.056h.052q.098 0 .336.104v-.052q-.217-.165-.336-.16v-.057h-.165v-.052l.165-.005v.057l.114-.005q.351.109.387.109l-.108-.166q2.16.683 2.16 1.458 0 .32-.61.728v.057q-.108-.052-.165-.052-4.325.15-4.325.352.165.274.165.44-.057.004-.057.056l.28.052h.056l-.057-.109v-.057l.388-.005-.109-.222h.052q1.106-.02 1.612 1.08.677.889 1.106 1.809-.279.894-.667.899-.211.17-.439.176h-.057q-.997-.533-.997-1.148-.217-.439-.279-.439l-.222.005q-.527.176-.667.176-.356-.103-.496-.098-1.328.439-1.328.573l1.271-.408q.098.052.222.052v.108h-.056q-.853.016-1.66.972-.206.17-.387.175h-.113q-.941-.279-1.5-.806 0-.108-.05-.108 0-.274 1.053-1.235.543-.615.998-1.628l-.28-.047q-.924.181-1.772.47v.171q.9-.408 1.83-.589h.051v.057l-2.046.646q-.889-.284-.889-1.153v-.165q1.623-1.4 2.274-1.592h.052v.057q-.869.48-1.05.74h.052q.987-.574 1.168-.58h.052v.057q-1.22.553-1.22.853 1.447-.305 2.496-.486v-.279q0-.03-.496-.434-.263.186-.61.233 0-.099-.444-.326l-.558-.708v-.114q0-.62.945-.956 0-.056.388-.232.098.057.222.051l-.057.114h.114v.052q-.17.005-.17.114l.5-.005q.11-.005.11-.114 0-.863-.497-.987v-.057q0-.222.61-1.121l.496-.005q.14-.005.501-.12.181.481.719.926l.057.336q0 .31-.109.832.63-.124.827-.238.44-.005 1.168.754v.057q0 .89-2.33.925 0 .057-.058.057l.114.997q2.03-.144 2.935-.16v-.113q-.429-.491-.661-.486v-.057l-.114.005zm-3.99.403q.403.212.445.212l.051-.114v-.388l-.051.005q-.419.15-.445.284zm3.824-.455.114-.005v.057h-.114zm-2.826-.01v1.054h.057q.108 0 .108-.114v-.274l-.057-.666zm-1.328-1.69.108-.005v.057h-.108zM46.992 295.526q.873-.016 1.426.987l.062.356q0 .512-.476.78-.718 1.38-1.074 2.341l.118-.005q.776-1.441 1.075-2.222h.057q0 .062.062.062 0 .734-1.075 2.398v.119q4.465 2.18 5.36 2.165v.062q-.373.005-.895.073v.062q.124 0 .837.103v.062q-.067 0-.18.062-.998-.041-1.55-.031l-.295.005v.057q.816.103.894.103v.062l-1.432.02v.063l.713.046v.062l-1.07.135v.062q.3-.005.895.041v.062q-.58.01-1.789.563-.671.016-2.914-2.087h-.062q-.806.93-1.664 1.338l-.119-.238-.3.186h-.118q.18-.3.18-.418-.18.201-.894.315l.414-.486q-.579.31-1.008.315-.077 0-.6-.046v-.062q1.003-.016 2.92-1.897l.057-.118q-1.478-1.463-1.845-1.458l.062-.3-.3-.051q.238-.269.238-.3h-.175v-.176q.578-.785 1.07-.795h.061q.259-.005 1.189.992.114.108.832.522.837-1.545.837-1.742h-.062q-.336.005-1.907.512-.32.005-1.188-.936l.237-.237v-.062q-.356-.052-.356-.17.899-.016 3.633-1.257zM58.355 301.065q.067.212.43.207l.05-.274-.05.005q-.058.052-.43.062zm-3.11-1.307q.16.45.211.92l.377-.005-.056-.491q.056-.3.056-.434l-.108-.052-.377.005zm5.146-.414v.16l.212-.004q0-.078-.16-.16zm-6.33.052-.16.496-.109-.051q-.532 1.064-.532 1.147.279-.005.532-1.096h.057v.217h.052q.217-.589.217-.656v-.057zm4.558-.186v.166q0 .108.377.206v.057h-.16v.109q.32-.005.32-.44-.29.005-.537-.098zm-1.339-.191q0 .134-.268.708-.052.785-.052.873.098-.005.429-.61.103 0 .103-.108 0-.15-.16-.868zm1.235-.46v.057l.104-.005v-.052zm-.108-.594q0 .377.108.377.75-.01.75-.176v-.325h-.052q-.119.005-.806.124zm2.196.232q.346.264.43.264v.108q0 .16-.533.336l-.057.326v.057q.088 0 .429.103l-.212-.217q.698-.01.698-.992v-.651l-.378.01q-.377.005-.377.656zm-5.416.527h.109q.44-.005.806-.5.346-.006 1.127.47v-.11q-.43-1.172-.43-1.296-1.022.201-1.022.29zm5.633-4.495q1.075.134 1.075.795-.362 1.09-.646 1.096-.589.01-.75.067 0 .078.321.32.858-.232 1.127-.237h.108q.595-.01 1.127 1.447v.108q0 .052-.326.222l-.48 1.53.051.326q0 .816-2.253.857l-.16 1.251q2.108.889 3.488.863.538.207 1.178.253v.052q-.661.067-.697.067v.057q.088-.005.646.041v.057l-.269.057h-.052q-.351.005-1.075.072v.057l.378-.005v.108h-.16l-.646.068v.051l.589-.01v.057q-.17 0-.806.124v.052l.645-.01v.056q-.387.005-1.235.507l-.211.005q-.688-.14-2.093-1.215h-.052q-.465.879-1.287.894-.057-.103-.057-.16l-.268.222h-.052l.109-.33-.057.004q-.31.274-.59.28l.218-.331v-.052q-.45.33-.755.336l-.16.005q-.109 0-.109-.109.822-.434 1.721-1.715-.522-.46-1.292-.9 0 .078-.16.166l-.16.005q-.222 0-1.824.356-.698-.34-.698-.914.377-.093.377-.274l-.211-.543q-.326.305-.755 1.752-.3.362-.48.445l-.27.005q-.697-.595-.697-1.024v-.108h.16q.336-.005.75-.992.253-.393 1.235-2.305l-.269.062q-.424.005-.858-.75v-.16q0-.418.966-.888.104.051.16.051-.108.181-.108.274h.057q1.83-.413 2.093-.579.434.124.8.584v.052l-.05.274q.32-.222.909-.233l.16-.005q.03.217.165.217l.48-.062v-.056l-.216-.212q.175-.114.268-.114v-.057q-.873.016-1.338-1.224.765-.776 1.395-.786h.052v.052q-.212.03-.212.17 0 .078.264.155.6-.01 1.72-.625z" style="font-style:normal;font-variant:normal;font-weight:400;font-stretch:normal;font-size:10.58333302px;font-family:HanyiSentyPagoda;-inkscape-font-specification:&quot;HanyiSentyPagoda, Normal&quot;;font-variant-ligatures:normal;font-variant-caps:normal;font-variant-numeric:normal;font-feature-settings:normal;text-align:start;writing-mode:lr-tb;text-anchor:start;stroke-width:.09244827" transform="matrix(.53482 0 0 .53482 2.007 -150.127)"/><path d="M69.73 295.526q.873-.016 1.425.987l.062.356q0 .512-.475.78-.718 1.38-1.075 2.341l.119-.005q.775-1.441 1.075-2.222h.057q0 .062.062.062 0 .734-1.075 2.398v.119q4.465 2.18 5.359 2.165v.062q-.372.005-.894.073v.062q.124 0 .837.103v.062q-.067 0-.181.062-.997-.041-1.55-.031l-.295.005v.057q.817.103.894.103v.062l-1.431.02v.063l.713.046v.062l-1.07.135v.062q.3-.005.894.041v.062q-.579.01-1.788.563-.672.016-2.914-2.087h-.062q-.807.93-1.664 1.338l-.12-.238-.299.186h-.119q.181-.3.181-.418-.18.201-.894.315l.413-.486q-.578.31-1.007.315-.078 0-.6-.046v-.062q1.003-.016 2.92-1.897l.057-.118q-1.478-1.463-1.845-1.458l.062-.3-.3-.051q.238-.269.238-.3h-.176v-.176q.579-.785 1.07-.795h.062q.258-.005 1.189.992.113.108.832.522.837-1.545.837-1.742h-.062q-.336.005-1.907.512-.32.005-1.189-.936l.238-.237v-.062q-.357-.052-.357-.17.9-.016 3.633-1.257z" style="font-style:normal;font-variant:normal;font-weight:400;font-stretch:normal;font-size:10.58333302px;font-family:HanyiSentyPagoda;-inkscape-font-specification:&quot;HanyiSentyPagoda, Normal&quot;;font-variant-ligatures:normal;font-variant-caps:normal;font-variant-numeric:normal;font-feature-settings:normal;text-align:start;writing-mode:lr-tb;text-anchor:start;stroke-width:.09244827" transform="matrix(.53482 0 0 .53482 2.007 -150.127)"/><path d="M76.55 303.845q-.32-.015-.578-.201-.713-.59-.89-1.623-.056-.351-.071-.708-.031-.434-.031-.811 0-.336.025-.672.037-.372.124-.739.073-.356.207-.692.186-.45.507-.801.294-.352.661-.62.305-.238.672-.347.175-.036.393-.036.175 0 .35.026h.016q.765.067 1.065.377.155.202.155.46v.052q0 .372-.264.739-.067.098-.206.269-.341.45-.775.785-.166.124-.316.196l-.015.01q-.083.042-.14.042-.098 0-.18-.052-.16-.093-.28-.237l-.082-.088-.01-.005q-.026-.021-.047-.047h-.005q-.067-.067-.067-.113l.005-.031q.062-.145.206-.29l.068-.072q.336-.336.635-.48.052-.037.104-.037.025 0 .056.01l.186.14.005.062q.083.052.114.062.01-.078.01-.16 0-.28-.211-.445-.207-.144-.455-.196-.383-.057-.765-.062-.165 0-.33.026l-.011.015q-.155.346-.248.708-.114.388-.165.78-.042.491-.042.982 0 .264.01.527 0 .326.094.812.087.398.294.744.16.274.403.496.243.217.558.305.098.01.197.01.33 0 .63-.134.181-.243.284-.77.031-.088.155-.212.01-.005.016-.016.269-.258.429-.31.026-.01.046-.01.031 0 .031.02l-.005.022v.186q0 .17-.036.33-.114.326-.346.584-.677.806-1.452 1.096-.01 0-.016.005-.325.14-.672.14z" style="font-style:normal;font-variant:normal;font-weight:400;font-stretch:normal;font-size:10.58333302px;font-family:HanyiSentyPagoda;-inkscape-font-specification:&quot;HanyiSentyPagoda, Normal&quot;;font-variant-ligatures:normal;font-variant-caps:normal;font-variant-numeric:normal;font-feature-settings:normal;text-align:start;writing-mode:lr-tb;text-anchor:start;stroke-width:.09244827" transform="matrix(.53482 0 0 .53482 2.007 -150.127)"/><path d="M81.212 301.556zm2.237 2.186q-.02 0-.046-.01-.13-1.261-.13-1.995l.006-.377.005-.196q-.16.237-.341.46-.528.614-.962.986-.527.45-1.012.569l-.016.005q-.124.03-.233.03-.377 0-.49-.444-.078-.439-.078-1.405l.005-.31-.005-.982q0-.63.016-1.085.025-.362.025-.486-.258.238-.34.33-.213.228-.476.404-.103.083-.228.119-.067-.005-.067-.052 0-.041.047-.109v-.005q.093-.144.217-.268.29-.32.604-.615.166-.17.223-.259.056-.093.129-.18.212-.264.475-.47.181-.166.409-.238.03 0 .062.01.025.036.025.093v.108q-.01.026-.036.708-.03.434-.03 1.132v.212q0 .372-.006.739l-.005.517q0 .873.047 1.106l.005.03q.025.228.201.378.114.067.186.067.217 0 .398-.088l.196-.212q.336-.413.672-1.085.243-.563.383-1.152-.005-.32-.016-.564v-.206q0-.512.02-1.029.011-.155.016-.315.047-.134.145-.238.176-.227.48-.48.228-.186.42-.243l.02-.005q.052 0 .052.046l-.005.031q0 .31-.047.807-.041.392-.046.79l-.005 1.742.005.237q0 .295-.01.491-.021.517-.021 1.35l.005.831q-.042.103-.12.191l-.108.124q-.294.305-.532.424-.041.036-.088.036zM90.157 303.107q.29-.005.486.196.227.207.217.563-.005.357-.238.574-.207.191-.512.196-.3.005-.511-.201-.186-.192-.181-.559.015-.346.232-.563.197-.201.507-.206zm.3-.936q-.047.145-.135.259-.082.113-.17.113-.088.01-.166-.113-.108-.166-.15-.305-.242-3.008-.475-4.465-.232-1.457.258-2.14.491-.682 1.127.005.636.688-.29 6.646z" style="font-style:normal;font-variant:normal;font-weight:400;font-stretch:normal;font-size:10.58333302px;font-family:HanyiSentyPagoda;-inkscape-font-specification:&quot;HanyiSentyPagoda, Normal&quot;;font-variant-ligatures:normal;font-variant-caps:normal;font-variant-numeric:normal;font-feature-settings:normal;text-align:start;writing-mode:lr-tb;text-anchor:start;stroke-width:.09244827" transform="matrix(.53482 0 0 .53482 2.007 -150.127)"/></g></g></svg>