<svg xmlns="http://www.w3.org/2000/svg" width="31mm" height="214mm" viewBox="0 0 31 214"><g aria-label="让她那里水流不止" style="font-style:normal;font-weight:400;font-size:13.9764328px;line-height:1.25;font-family:sans-serif;letter-spacing:0;word-spacing:0;fill:#000;fill-opacity:1;stroke:none;stroke-width:.3494108"><path d="M101.07 32.804v.239h.074v-.24Zm5.582-1.433q0 .075-.157 1.262v.075h.075q.157-.71.157-1.023v-.314zm-.553-.853v1.808l-.082.157h.082q.109-.007.232-.239v-.71q0-1.023-.232-1.016zm1.18-2.539v.553l.157-.082-.082-.471zm-.238-2.354q.784 1.323 1.419 1.317v.157q-.396.682-.396.866h-.082l-.157-.464h-.075v.785l.39-.082-.233.314q.314.062.314.157.594-.014 2.04-.9l.083-.008q1.098.164 1.098.69l.157.157q-.307 1.501-1.017 1.508l-2.675.6q-.286 0-.71-.382v.785q0 .573.157 1.727-.157.327-.157.477l.082-.006q2.955-.226 3.535-.608l.471-.089.24-.006q1.18.996 1.18 1.945 0 .498-.635.955-1.815-.28-3.93-.246-2.191.041-5.105 1.188l-.082.007q-.6.006-.71-1.406v-.628q-1.931 2-2.04 2-.13.081-.396.088h-.232q-1.174-1.064-1.181-1.549.437-.007 2.122-1.297V31.01l-.082-.553q-1.208 1.126-1.883 1.133-.56.014-1.18-.996.47-.014.47-.17-.239.006-.546-.07v-.074l.314-.007v-.082l-.157.007q.11-.13 1.256-.573 1.76-.894 1.965-1.372.082 0 .24.075.75-.089.859-.17.382.825 1.024 1.085l.082-.007v.157q0 .068-.396 1.187l-.157-.075v.628h-.082q-.055-.39-.232-.39v.158q0 .266-.082 1.337h.082l-.082.157v.157l.635-.402h.075q0 .396.239.389l.546-.321.081-.007-.395.635q.075 0 .47-.32v.081q-.266.505-.627 1.03h.082q0-.109.47-.477v.075l-.238.32h.082l.47-.327h.075q-.232.43-.232.71h.076q1.023-.253 1.337-.26v-.075q0-.198-.157-.71.239-.395.239-.627l-.71-.696h.082q.416.307.703.3h.082v-.553q0-3.692-.553-3.685-.123 0-.314-.307.942-1.317.942-1.508l.71-.014q.396-.007.942-.177zm-5.426-.45q1.42.45 1.42 1.466-.24 1.024-.553 1.03-.696-.067-.867-.06l-1.099.252q0-.061.628-.56 0-.157-.157-.157-.75.567-.942.567.71-.676.71-.717l-.478.007v-.082l.321-.082v-.075q-.28-.075-.32-.075v-.082h.156v-.082l-.627.014q.395-.437.395-.478l-.313-.307q1.262-.573 1.726-.58zM108.962 50.002v.075l.907-.013.3-.082v-.075h-.075q-.655.088-1.132.095zm.457-.232-1.815.034v.075l.907.062q.341-.007 1.659-.11v-.15zm-4.306-1.433v.45q.082 0 .682.67l.15.074v-.075q-.757-.614-.757-1.119zm-.3-.375v.307q.02.15.15.143v-.6q-.15.027-.15.15zm0-.376v.15h.15v-.15zm2.94.028h.076q.109-.007.225-.232h-.075q-.102 0-.225.232zm-2.94-.328v.15h.074v-.15zm2.64-1.556q0 .273-.075.683v.225h.075q0-.191.076-.608v-.3zm-3.773-.157q0 .219-.526 1.29.676.287 1.133.655V45.71q-.382-.144-.607-.137zm-.3-.45q-.458 1.27-.458 1.515v.075h.082q.3-.764.525-1.515zm3.698-.137v1.659q.15-.007.15-.157v-1.133l-.075-.376zm-1.358 2.362q0 1.132.526 1.119 0 .15 1.583.198 2.716-.198 2.716-.574v-.15q0-.45-.15-1.733h-.075q-.212 1.965-1.509 1.986-.095.007-.757.088-.15-.184-.15-.218.109-.007.232-.232v-.075l-.532-.068q0 .266-.833.396h-.3q0-.11-.226-1.126.15-.253.15-.458v-.075l-.525-.669.375.069h.15q.15-.007.15-.157v-.901h-.074q-.6.177-.6.614zm-4.682-1.277q.09.075.45.069.533-1.242.608-2.048-.907.014-.907 1.072-.15 0-.15.907zm6.94-1.931v2.259q.909-.014.909-1.522-.076-1.058-.226-1.05-.682.156-.682.313zm-3.923-.914q0 .648-.45 1.064v.225h.15q0-.082.075-.232l.15.075.307-.157-.082-.15v-.675q0-.15-.15-.15zm-4.982-.369h.157v.075h-.157zm8.83-3.323q.042.539 1.059 1.419-.267.758-.45.758 0-.076-.076-.069-.075.096-.075.526h-.075l-.075-.376h-.075l-.082.383v.15h.082q1.01-.533 1.358-.553.75-.014 1.583 2.006v.157q-.525.328-.682 1.515 0 .533-.075.608.273.116.532 1.126l.075-.007v-.075l-.15-.75v-.076h.075q.3.921.3 1.051h.075v-.075q-.075-.136-.075-.3v-.075l.075-.007q.273.976 1.283 1.863v.157q-.273 1.508-1.508 1.535-.84.09-2.19.11l-.833.013q-3.105.055-3.392-.314-.3-.34-.3-1.276-.546.84-.983.846l-.382-.068.157-.232-.457.007v-.075q.3-.007.3-.232l-.45.007v-.075q.3 0 .3-.157l-.526.013q.15-.252.15-.457l-.15-.075q-.355 1.024-1.808 2.225-.082-.15-.082-.226l-.3.232h-.075l.075-.382q-.41.314-.751.314.3-.382.3-.457-.655.389-1.133.403-.143-.075-.225-.075v-.075q.546-.007 2.341-2.382.15-.246.15-.45l-.382-.076q-.075.232-.45.24-1.283-.233-1.283-.888.832-1.474.832-1.747-.737.334-.757.389-.574.014-1.208-1.188v-.15q0-.675 1.583-1.385l-.075.157q.15.068.232.068v.075h-.157v.157l.082-.007q.75-.013.75-.539h-.075q.226-.716.226-.832l-.15-.075-.15.006-.15.076v-.076l.15-.225v-.157l-.226.007q.15-.252.826-.696h.082q.9-.014 1.583 1.406.075 0 .075.075.546-.307.6-.314.663.136 1.209.662.239-.314.457-.915l.976-.02.15-.075q.491.99 1.058 1.262v-.675q0-.758-.45-1.126 0-.178.6-1.29v-.075l.832-.02zM107.63 62.966q0 .43-.074 1.085v.157l.075-.007q0-.068.082-.62v-.615zm-.388-.833v1.85q.157 0 .157-.157v-.928l-.082-.765zm-2.518-.846-.076.39v.313l.076-.007q0-.314.081-.62v-.076zm3.535-.655v.307l.395.068.24-.006q0-.123-.635-.369zm-3.692-.266q-.157 1.133-.157 1.317v.082l.082-.007q.156-.641.156-1.235v-.157zm3.617-.505v.232q0 .177.395.218v-.075q0-.102-.395-.375zm-5.897-1.194.24-.007.156-1.085q-.239.006-.396 1.092zm.471-1.017q0 .082.082.232l-.082.464v.232l.239-.007q.157-.007.157-.164v-1.003q-.396.116-.396.246zm3.221-2.887q.082.15.082.232h.075v-.157zm-3.774.28v.082q.635.9.71.9l.157-.006v-.614l-.075-.54q-.13.096-.792.178zm6.292-.205v.232q-.313.949-.313 2.013v2.47q.122.26 1.023.43.43-.013 1.017-.73v-.075q0-.614-1.57-1.262-.157-.54-.157-.84 0-.122.867-1.726.232-.819.232-.935zm-5.186-2.225q2.122.498 2.122 1.092l.075-.007q.888-.941 1.495-1.2l.082-.008-.157.24v.074q.252-.163.47-.17 0 .04-.156.239v.075l.157-.082h.075v.075l-.075.157.232-.007q2.047-.164 2.047-.457.082 0 .232.075.833-.26 1.024-.266 1.023.716 1.023 1.665v.232q0 .341-1.098 1.576l-.471 1.174q1.413.519 1.413 1.652v.232q0 1.576-1.652 2.907l-.553.095q-.594-.102-1.337-.498l.163 2.853q0 .792-1.42 1.979-.88-1.297-.94-2.054.156-.26.156-.471l-.082-.307q.157 0 .157-.157v-2.163q0-5.788-.47-5.767V55l.081-.388q-.314.014-.314-.3l-.314.17q-.082 4.723-.082 7.098v1.392q0 1.256-1.883 1.836-.382.013-1.18-1.584 0-.198-.71-.28 0-.109 1.576-.443.157-.348.157-1.003v-.771l.075-.39h-.075q-.915.028-1.106.806-.477 1.624-1.808 2.92 0-.313-.157-.306 0 .109-.232.239v-.383q-.287.24-.553.246l-.075.007v-.082l.232-.47-.075.006q-.32.47-1.106.498-.15-.075-.232-.068v-.082q.587-.014 1.727-2.061v-.157q-.942.034-1.413-1.802.062-.102 1.413-.744h.082l-.157.24.075.15q-.075 0-.075.075h.075q1.106-.035 1.106-.963 0-.075-.082-.075-.512.17-.71.178l-.157.006q-1.017.035-1.017-1.358l.39.069q0-.157-.472-.294v-.082h.157q.15.069.24.069 0-.157-.24-.15v-.076q1.133-.034 1.734-.211-.253-.69-1.024-.97-.867-.368-.867-1.357v-.082q.82-.874 1.338-.887l-.082.157.082-.007q.15-.082.232-.082l-.075.157.157-.007-.082.157h.082q1.078-.041 2.832-.949zM104.365 76.582v.894h.226v-.901zm.519-.082q0 .293-.143.969h.143l.075-.75v-.226zm-2.314-4.443q-.307-.143-.45-.143v.6l1.42-.252v-.519h-.076q-.13 0-.894.314zm-.668-2.225q-.15-.075-.226-.075.15.382.15.594h.15q.567-.382.82-.39l.15.226h-.15v.075h.15q.518-.648.518-.757-1.358.32-1.562.327zm3.432-.662q.205.492.45.594.165-.007.301-.082.6.184 1.044.73 0 .82-1.57.847v.6q1.57-.28 1.57-.628.15-1.003.15-1.42-.04-.968-.225-.968-1.72.211-1.72.327zm2.84-2.21q.702-.015 1.72 1.985v.369q-.56.327-.752 1.207-.546 2.996-1.57 3.017-1.303.02-2.087.184v.826l.894-.096h.15q.587-.006 1.644 1.092 0 .649-2.613.792v1.044l2.238-.04q1.706-.479 1.945-.479 1.344.82 1.344 1.693 0 .498-.675.907-1.55-.197-3.133-.17l-1.42.027q-2.128.034-5.977.997l-.15.006q-.82.014-.82-1.33 0-.874.451-1.126l.669-.608.075-.007-.45.608q.075 0 .45-.307h.075l-.075.15v.075q.45-.307.6-.307-.225.375-.225.6.355-.007 3.058-.505v-.225l-.444-.437q-.137 0-.6.157-1.079.02-1.345-1.542h.075q.396.068.45.068 0-.15-.45-.293v-.075l.225-.007.15.075v-.075q-.184-.143-.3-.143v-.076l.526.069q.307-.007 1.788-.185v-.818q-.58.006-2.164.484-.593.014-1.194-1.024.15-.389.15-.6-1.044-2.866-1.044-3.42v-.074q0-1.058 1.488-1.44l.45-.007q.116-.007.376.587 3.084-.723 6.496-1.604zM105.566 88.662q-.068.948-.068 1.412v.492h.137v-1.911zm0-.99v.703h.069v-.71zm-.28-.28v1.625q0 .457-.074 1.412.211 0 .211-.921v-2.116zm-2.402 1.174h.069q.723-1.044.99-1.788h.067v.068q-.143 1.338-2.47 4v.075q1.017.402 2.122.593.56-.007.56-2.197.075-.799.075-1.481-.075-.771-.075-1.344h-.136q-.587.682-1.202 2.074zm2.47-2.586q0 .873-.067 1.27h.136v-1.27zm-1.057-4.436q2.19.525 2.19 1.235.185.137.349.771-.771.335-.771 2.484v.778q1.426-1.242 2.115-2.368v-.068q0-.314-.491-.703.211 0 1.412-.375 1.413.293 1.413.962 0 .403-.635.723-.99 1.406-.99 1.495h.07q.32-.328 1.2-1.502h.075q-.552 1.577-2.054 2.369-.164 0-.914.368-.075-.211-.144-.211-.232.143-.354.15l.143-.287q-.26.143-.567.15h-.211l.28-.286h-.069q-.122.075-.28.081v.703q.424-.286.847-.293 2.28.539 4.593 1.822.28 0 .491.983-.396 1.91-1.126 1.924-.566-.13-.566-.273.211 0 .211-.143l-.566.014q0-.048.355-.362l-.635.013v-.075q.423-.075.423-.218l-.143-.068-.492.082q.137-.24.137-.43 0-.785-3.46-1.706v1.487q0 .567.068 1.338 0 .792-1.201 1.856-.491.294-.703.3h-.211l-.642-1.05q-1.12-1.038-1.338-1.031v-.075h.137q.512.061.641.13v-.069q-.982-.34-1.699-.682v-.068h.068q.928.266 1.345.26 0-.124-1.345-.615-.662.86-1.2.867-.137-.069-.212-.062.355-.396.355-.43l-.144.068-.56.014.137-.287h-.068q-.26.15-.567.15l.28-.354q-.477.218-.77.225l-.5.007v-.068q1.052-.232 2.826-1.959 1.174-1.508 1.556-2.43-1.733 1.1-2.545 1.386-.492-.696-.778-.69v-.074l.355-.076q0-.211-.635-.197v-.076q.061 0 .566-.075v-.075q-.532-.13-.634-.13v-.068q.423-.007 2.327-.887 1.296-.539 1.979-1.099h.143q.328-.007 1.058.615l-.068-.137v-.71q-.778-.798-.778-2.388.26 0 .846-.58zM106.576 107.32l-.068.717v.211h.068l.076-.648v-.287zm-.354-.641v1.214l-.076.15.219-.006v-.86l-.075-.498zm-6.456-.533h.075v.144h-.075zm-.43-5.657.573-.007q1.222-.02 1.795 1.972 0 1.167-1.147 1.386h-.143q-1.003-.437-1.003-.628-.007-.574-1.154-1.768.505-.013.505-.157l-.143.007v-.143l.287-.007-.144-.212q.505-.082.505-.225l-.075-.143zm7.316-1.058q0 .157-1.079 1.379v.075q1.597-.39 1.795-.39v-.143q-.573-.737-.573-.92zm.068-.218v.143l.505-.075-.075-.143q.361-.007.361-.15h-.075q-.716.054-.716.225zm-3.726-1.87h.068v.143h-.068zm2.723-2.41q2.081.24 2.081 1.68 0 .3-.505.73.717-.089 1.078-.089l.43-.013q1.25-.45 1.433-.45h.069q.56-.014 1.221 1.193v.287q0 .28-.43.723l-2.006-.109q-.219.075-1.003.089v.075q.539-.014 1.93 1.829-.067 1.078-.429 1.085 0 .43.86.915l-.573 1.371h-.069q-.075-.245-.075-.286l-.143.007q-.355 1.194-.355 2.224 0 .935.642.922.41-.007 1.364-1.672h.076v.143q0 .198-.219.86h.075q.287-.519.287-.648h.068v.143q0 .13-.211.648v.068h.068l.075-.286h.068q0 .252.218 1.14v.286l-.361.58q.143.457.143.498 0 .39-1.078.526-1.693.027-2.58-2.32-.143-.54-.143-1.004v-.573q0-.75.362-2.3-.43-.245-.43-.348l.641-.948q-.068.007-.068-.069-1.44.171-2.436.403v.068l.354.069q.09 0 .717-.082.13.443 1.078 1.126-.198.477-.43.58 0-.068-.075-.068l-.068.43h-.075q-.068-.246-.068-.287l-.144.007v2.436q0 .915.144 1.856-.478.799-1.079.813l-.355.007q-.218 0-.361-.997.143-.007.143-.15v-.143l-.498-.567h.068l.43.069.075-.15v-1.215q0-2.368-.287-2.362-.116 0-.286-.28l.641-1.016v-.068h-.068q-.143 0-1.583.525v.075q1.01.082 1.01.84v.286q-.239.007-.362 2.232v.143h.069q.218-1.14.218-1.87v-.143h.143q0 .211.075.498 0 2.402-1.365 3.897-.136-.075-.218-.068 0 .102-.212.218v-.287q-.197.219-.505.219l.144-.287h-.068q0 .28-1.079.594h-.068v-.068q.778-.267 1.358-1.89.362-.922.362-1.796 0-1.44-.935-1.637l-.068.007v-.076q.198 0 .86-.805l-.505-.846q0-.43 1.003-1.235.505-.765.505-1.229-1.25.45-1.577.458-.505.007-.648-1.14l-.068.007q0 .287-.287.43-.464.007-.935-.055-.832.232-1.146.24 0-.144.648-.445v-.075q0-.143-.218-.136-.41.198-.928.587l-.076.007q0-.068.792-.73v-.076l-.505.007v-.068q.362-.061.362-.225l-.43.007v-.068q.211-.007.211-.15l-.648.013q.362-.314.362-.58-.287-.102-.287-.211 1.29-.594 1.652-.6h.068q1.508.381 1.508 1.337l.642-.587v.068l-.144.218v.075l.43-.368v.075q0 .034-.143.218l.505-.3v.075q-.143.294-.143.43h.068q1.283-.382 3.733-.71v-.075l-.648-.054q-.656.225-.785.225.068-.137.068-.218l-.287-.492h-.068l.068-.143v-.143q0-.082-.86-.703.219-.007.219-.15-.075 0-.075-.069l.286-.218.075-.143q-.075 0-.075-.076.26-.143.574-.15zm-6.525 4.56v.068h-.143v-.068zm.574.061v.068h-.144v-.068zm2.798 4.252v.068q-.191.628-.717 1.235l.068-.007.43-.362v.069q-.47.757-.785 1.091h.069l.648-.443v.068q0 .089-.648.874h.075q.068 0 .498-.369v.075q-1.501 2.675-2.15 2.689h-.143q-1.147.02-1.147-1.194v-.287q0-.437.935-1.235l.069.355q1.412-1.29 2.798-2.628zM108.624 120.042l.19-.457-.252.13.123-.342-.232.096.13-.505-.26.088.028-.061q.04-.137.157-.382-.26-.24-.655-.553-.396-.314-.73-.566-.335-.253-.417-.308-.143-.095-.287-.204-.143-.116-.238-.205l-.096-.082.471-.13-.252-.122.348-.11-.212-.13.478-.204-.219-.15q.266-.089.574-.143.109-.021.211-.021.239 0 .457.096.219.088.82.402 1.65.874 2.285 1.447.103.061.157.232.055.164.09.355.033.164.067.293l.035.048.007.027q.02.13.02.342 0 .143-.027.293l-.014.027q-.048.253-.287.423-.184.123-.273.192-.116.109-.204.109-.068 0-.205-.055-.198-.068-.553-.109-.102-.014-.184-.014-.157 0-.273.041-.164.062-.341.11-.178.047-.307.075zm-3.665.914q.089-.075.157-.75l.061-.683-.034.15q-.123.56-.17.826-.041.26-.041.396 0 .061.02.061zm-.423-.163q.027 0 .116-.048l.089-.048q.061-.123.068-.444 0-.314-.055-.627-.048-.314-.164-.424l.007.226q.007.232.007.532 0 .744-.054.812-.014.014-.014.02zm-.218 1.733h-.007q-.09 0-.294-.246-.198-.239-.403-.552-.197-.314-.273-.52-.04-.129-.04-.224 0-.082.054-.137.103-.102.103-.3 0-.055-.028-.082-.02-.034-.082-.061-.013-.014-.013-.02 0-.014.061-.035.198-.04.212-.184.02-1.631.02-3.064l-.007-.833v-.3l-.798.907q-.983 1.12-1.201 1.563-.273.6-.772 1.037-.49.437-.914.635-.266.13-.464.13-.089 0-.246-.055-.157-.061-.368-.539-.15-.334-.226-.71-.054-.252-.054-.45 0-.102.027-.28.034-.184.26-.198h.06q.288 0 .465-.061.184-.068.464-.369.184-.184 1.194-1.255 1.652-1.754 2.17-2.444v-.007q0-.156.096-.28-.177.042-.355.09-1.535.388-2.122.634-.246.102-.437.102-.116 0-.294-.068-.177-.075-.327-.3-.15-.232-.246-.457-.082-.185-.15-.28-.123-.15-.123-.341 0-.232.164-.621.061-.123.389-.335.6-.396 1.501-.853.403-.218.464-.26l-.361.349.58-.123-.532.28.552-.096q-.436.219-.436.328 0 .048.116.048.13 0 1.358-.219 2.231-.395 4.244-.805.99-.205 1.045-.252.061-.048.088-.062.034-.013.062-.013.054 0 .116.02.068.02.163.041.171.055.512.266.348.212.649.457.307.24.375.39.048.115.102.388.028.123.028.246 0 .157-.055.382t-.389.382q-.184.082-.498.082-.239 0-.56-.048-.402-.06-.9-.06-.683 0-1.789.15l-.007.006q-.102.144-.416.498.232.103.307.191.034.041.034.096 0 .11-.109.273-.089.143-.15.334-.061.185-.095.369-.035.177-.048.3l-.014.123-.007.055q-.013.061-.02.211-.007.143-.014.41-.007.266-.007.689 0 .416.014 1.017.013.593.04 1.406.035.805.096 1.849v.02q0 .342-.205.642-.204.3-.566.498-.355.198-.519.348-.143.123-.245.157zm-1.515-6.96q.088 0 .511-.567.13-.171.226-.314-.02-.089-.055-.137l-.293.382q-.396.526-.396.621zm-1.672 1.637q.02 0 .088-.027.075-.028.246-.144.17-.116.334-.28.17-.17.26-.361.102-.225.327-.553.232-.334.485-.655.252-.328.443-.553l.123-.15q-.007 0-.013-.007-.123.116-.383.403-.716.798-1.549 1.78-.389.465-.389.52 0 .027.028.027zm2.265-3.59q.014-.02.028-.048l-.055.014q.014.014.027.034zM105.038 132.651v.47l.081-.006v-.471zm-.628-.225q.082.136.157.703l.238-.007q-.156-.703-.395-.696zm-.942-7.057.157-.007q.32-.007.628.069.307-.082.628-.09h.081q.813.84 1.57.99v.24q0 .108-.47.477h-.083v-.232h-.075v.628h-.082q0-.225-.314-.382v1.57l.082.545q2.437-.826 2.907-.832 1.256.361 1.256 1.078v.157q-.157.866-.785.88l-.627.007q-.553.014-1.884.43h-.157q-.293.007-.71-.3v2.436q2.887-.054 4.477-.628 1.577.67 1.577 1.775 0 .198-.628.723-1.57-.13-2.99-.11l-.784.015q-3.351.06-7.944 1.242h-.157q-.703.013-.785-1.638v-.075q0-.396 1.256-1.358v.075q-.47.518-.47.56h.081l.546-.403h.082q0 .04-.314.395.566-.32.703-.327-.232.402-.232.56l.314-.008v-.47q0-3.774-.396-3.768-.096 0-.389-.464l.47-.007v-.081l-.156.007v-.082l.232-.007v-.075l-.075-.157.47-.09-.074-.15.157-.081.157-.007q1.426-.02 1.883 1.542-.157 2.402-.396 3.542l1.106-.177-.396-.703q.628-.007.628-.246v-1.099q0-4.558-.314-4.552l-.47-.15v-.157q.709-.866.709-1.03z" style="font-style:normal;font-variant:normal;font-weight:400;font-stretch:normal;font-size:13.9764328px;font-family:HanyiSentyPagoda;-inkscape-font-specification:&quot;HanyiSentyPagoda, Normal&quot;;font-variant-ligatures:normal;font-variant-caps:normal;font-variant-numeric:normal;font-feature-settings:normal;text-align:start;writing-mode:lr-tb;text-anchor:start;fill:#000;stroke-width:.3494108" transform="matrix(1.88195 0 0 1.91205 -182.104 -47.134)"/></g></svg>