<svg xmlns="http://www.w3.org/2000/svg" width="31mm" height="214mm" viewBox="0 0 31 214"><g aria-label="让她那里水流不止" style="font-style:normal;font-weight:400;font-size:13.9764328px;line-height:1.25;font-family:sans-serif;letter-spacing:0;word-spacing:0;fill:#000;fill-opacity:1;stroke:none;stroke-width:.3494108"><g aria-label="讓她那里水流不止" style="font-style:normal;font-weight:400;font-size:10.58333302px;line-height:1.25;font-family:sans-serif;letter-spacing:0;word-spacing:0;fill:#000;fill-opacity:1;stroke:none;stroke-width:.09244827"><path d="m7.57 109.437-.056.713q.119 0 .119-.119v-.594zm-.95-.403-.594.666v.062q.242-.005.65-.728zm-2.801.108q.18.414.18.77h.12l.594-.067v-.837l-.176.005q-.305.005-.718.129zm7.322-.362.062-.005q0 .12-.118.124h-.062q.02-.118.118-.118zm-4.108-.108-.238.362v.056h.062q0-.118.238-.418zm-1.007.134v.419q.072 0 .888-.91-.888.3-.888.491zm.237-.418v.056h.057q.713-.19.713-.31h-.057q-.615.254-.713.254zm3.096-.59v.057q0 .083.594.59.083-.006.176-.187v-.056q0-.16-.12-.357l.357-.067v-.057l-.175.005q-.088 0-.832.072zm.95-.253v.057l.238-.005q.563-.067 1.07-.077v-.057l-.532.005q-.507.072-.776.077zm.657-.253v.062l.119-.005q.232-.062.413-.067v-.057l-.176.005zm-7.68.672v.057q.357-.005.357.232 1.308-.217 1.308-.615l.356-.01q.238-.238.357-.243v-.057h-.057q-1.726.326-2.32.636zm7.442-.786v.062l.176-.005.356-.067v-.057h-.175zm-4.465.14.057-.005q.832-.114.832-.31h-.057q-.832.057-.832.315zm-.062-.3v.062l.12-.005v-.057zm2.026-.212v.057q.057 0 .057-.057l.119.057.418-.067v-.119q-.119 0-.119-.057-.475.067-.475.186zm1.488-.325v.18h.057v-.18zm-.238.005v.238q.12 0 .12-.12v-.118zm.414-.005q.062.113.062.176.75-.073.894-.078-.005-.077-.3-.233l-.356.01q-.3.021-.3.125zm-4.046-.527h.118v.057h.12l-.057-.12.237-.004v-.057q-.18 0-.48-.29-.491.005-2.734 1.06-.18 0-.18.119h.118q2.041-.48 2.558-.76.046 0 .537.227h.062v-.056q-.18 0-.18-.12l-.12.006zm.594-.13v.063l.3-.005.413-.068v-.18h-.057q-.548.19-.656.19zm1.726-.387v.238l.594-.068h.062v-.361q-.656.057-.656.19zm-1.607-.982.062.119-.062.119.418-.005v-.062l-.18-.233v-.062q.18-.005.18-.124l-.062.005q-.093 0-.356.243zm-4.227.61v.057l.237-.005q.217 0 2.145-.569.465.052 1.07.336l.48-.367q-.284.005-.418-.646h-.062q0 .248-1.726.507zm4.346-1.804v.181l.475-.01.062-.3-.419.01q-.118.021-.118.12zm2.92-.408v.238l.475-.005v-.181q0-.119-.12-.119zm-2.026 1.225q0 .119.832.284L8.64 104q-.175-.206-.175-.589l.056-.005-.175-.708q-.197.005-.476 1.318-.098.062-.3.062zm-1.07-1.649.057.12q.713-.12.713-.31-.15.061-.77.19zm1.307-.32v.124q.181-.005.476.165 0-.237.475-.361v-.062h-.057q-.764.134-.894.134zm1.55-.145q.176 0 .176.176h.12q.449-.01.655-.31l-.832.015q-.118.021-.118.12zm-.599-1.953.419.408q0 .15-.12.538h.063q.765-.073 1.783-.326.465-.01.832.817 0 .356-.77.372h-.062v.056q.537.124.537.29v.18q-.274.3-.356.781.118.015.118.114v.062q0 .46-.3.6l-.237.004-.713.072q.015.12.119.114h.057q.134 0 .237-.062.28.052.719.584 0 .434-.657.605l-.3-.057-.294.01v.238l.057-.005q.052 0 .475-.067.254-.005.719.646 0 .072 1.188.511.238.248.238.47v.12q0 .537-1.189.558l-.418.01.832.697q-.093.357-.357.362-.475.01-.594.31.062 0 .062.057-.119.02-.119.124 1.426 1.054 2.02 1.214v.057l-.413.01v.057q.357.052.357.17l-.181.006q-.248.005-.656-.047h-.057v.057l.3.057v.057l-.6.01v.062l.18-.005q0 .119-.418.13v.056h.238v.119q-.222 0-.651.305l-.238.005q-.646-.522-1.37-1.88l-.18.004v-.062h.119v-.062q-.388.01-.595-.046v-.062l.42-.124q-.166-.398-.363-.527-.413.579-.413.78-.119.02-.119.12v.118h.057q.119-.062.18-.062l-.061.119h.062q.294-.186.475-.186v.175l.419-.067-.181.243h.062l.176-.124v.062q-.502.584-2.026 1.581 0 .057-.295.124-.775-.397-.775-.878.636-.01.894-.553l-.062-.119v-.057q.181-.005.181-.3v-.356q-.95.868-.95 1.204-.342.243-.657.31-.196-.119-.357-.114-.305.005-1.844.331-.455.005-.838-.821h.181l-.594-1.478v-.062q0-.186.238-.481-.3.005-.713-.76v-.056q0-.342.888-.91v-.062q-.237.005-.475-.94l.3-.005-.357-.295h.057q.103.057.238.057-.827-.569-1.07-1.054v-.238q0-.408 1.07-.972.196.12.3.114v.062q-.182 0-.182.119.063 0 .063.062 1.162-.258 2.557-.64l.42.232q0-.14.175-.362-.217.005-.651-.527 0 .486-.419.604-.072 0-.594-.051-.708.19-.832.196.475-.382.475-.424v-.062h-.062q-.124.005-.775.372.403-.423.537-.423v-.12l-.356.006v-.062q.03 0 .238-.062v-.062q-.238.005-.238-.114h.119v-.062l-.476.01q.238-.268.238-.304v-.057q0-.12-.18-.114v-.119q.955-.434 1.312-.444 1.013.362 1.013.997.217-.263.65-.548h.12q.118.016.118.114l-.118.005v.119q1.488-.191 1.488-.326l.3.057.237-.067v-.057H7.69q-.206.062-.237.062l-.062.005v-.062l.243-.062v-.062l-.181.005q0-.119.237-.124v-.057h-.175v-.056l.175-.005v-.062q-.377-.109-.475-.109v-.119q.3-.046.3-.186-.124.005-.124-.114.982-.134 1.37-.144zm2.264 8.888q0 .12-.12.12l-.056.004q.015-.119.119-.124zM10.005 120.656v.057l.687-.01.227-.062v-.057h-.057q-.496.067-.857.072zm.346-.175-1.375.025v.057l.688.047q.258-.005 1.255-.083v-.114zm-3.261-1.086v.341q.062 0 .517.507l.113.057v-.057q-.573-.465-.573-.848zm-.227-.284v.233q.015.113.113.108v-.455q-.113.021-.113.114zm0-.284v.114h.113v-.114zm2.227.02h.057q.082-.004.17-.175H9.26q-.077 0-.17.176zm-2.227-.247v.113h.056v-.113zm2-1.179q0 .207-.057.517v.17h.057q0-.144.056-.46v-.227zm-2.858-.119q0 .166-.398.977.512.217.858.496v-1.37q-.29-.108-.46-.103zm-.228-.34q-.346.96-.346 1.147v.056h.062q.228-.578.398-1.147zm2.801-.104v1.256q.114-.005.114-.12v-.857l-.057-.284zm-1.028 1.788q0 .858.398.848 0 .113 1.199.15 2.056-.15 2.056-.435v-.113q0-.341-.113-1.313h-.057q-.16 1.488-1.142 1.504-.072.005-.574.067-.113-.14-.113-.165.082-.005.175-.176v-.057l-.403-.052q0 .202-.63.3h-.228q0-.083-.17-.852.114-.192.114-.347v-.057l-.398-.506.284.052h.114q.113-.005.113-.12v-.681h-.057q-.454.134-.454.465zm-3.545-.966q.067.056.341.051.403-.94.46-1.55-.687.01-.687.811-.114 0-.114.688zm5.255-1.463v1.71q.688-.01.688-1.152-.057-.8-.17-.795-.518.118-.518.237zm-2.971-.692q0 .49-.341.806v.17h.114q0-.062.057-.175l.113.057.233-.12-.062-.113v-.512q0-.113-.114-.113zm-3.772-.28h.119v.058h-.12zm6.687-2.516q.03.408.8 1.075-.201.574-.34.574 0-.057-.057-.052-.057.072-.057.398h-.057l-.057-.284H9.38l-.062.289v.114h.062q.765-.403 1.029-.419.568-.01 1.199 1.52v.118q-.398.248-.517 1.147 0 .403-.057.46.207.088.403.853l.057-.005v-.057l-.114-.568v-.057h.057q.227.697.227.796h.057v-.057q-.057-.103-.057-.228v-.056l.057-.005q.207.739.972 1.41v.12q-.207 1.141-1.142 1.162-.636.067-1.66.083l-.63.01q-2.35.041-2.568-.238-.227-.258-.227-.966-.414.636-.744.64l-.29-.051.12-.176-.347.005v-.056q.227-.005.227-.176l-.34.005V120q.227 0 .227-.119l-.398.01q.113-.19.113-.346l-.113-.057q-.27.776-1.37 1.685-.062-.114-.062-.17l-.227.175h-.057l.057-.29q-.31.239-.569.239.228-.29.228-.347-.496.295-.858.305-.109-.057-.17-.057v-.056q.413-.005 1.772-1.804.114-.186.114-.341l-.29-.057q-.057.176-.34.181-.972-.176-.972-.672.63-1.116.63-1.323-.558.254-.574.295-.434.01-.914-.9v-.113q0-.512 1.199-1.049l-.057.119q.114.052.176.052v.056h-.12v.12l.063-.006q.568-.01.568-.408H3.09q.17-.543.17-.63l-.113-.057-.114.005-.113.057v-.057l.113-.17v-.12l-.17.005q.114-.19.625-.527h.062q.682-.01 1.2 1.065.056 0 .056.057.413-.233.455-.238.5.103.914.501.181-.238.347-.692l.739-.016.113-.057q.372.75.801.956v-.511q0-.574-.34-.853 0-.134.454-.977v-.056l.63-.016zM8.997 130.795q0 .326-.057.822v.119l.057-.005q0-.052.062-.47v-.465zm-.295-.63v1.4q.12 0 .12-.118v-.703l-.063-.579zm-1.907-.64-.056.294v.237l.056-.005q0-.237.062-.47v-.057zm2.677-.497v.233l.3.051.18-.005q0-.093-.48-.279zm-2.795-.201q-.12.857-.12.997v.062l.063-.005q.119-.486.119-.935v-.12zm2.738-.383v.176q0 .134.3.165v-.057q0-.077-.3-.284zm-4.464-.904.18-.005.12-.822q-.182.005-.3.827zm.356-.77q0 .062.062.176l-.062.351v.176l.181-.005q.119-.005.119-.124v-.76q-.3.088-.3.186zm2.44-2.186q.061.114.061.176h.057v-.12zm-2.858.212v.062q.48.682.537.682l.119-.005v-.465l-.057-.408q-.098.072-.6.134zm4.764-.155v.176q-.238.718-.238 1.524v1.87q.093.197.776.326.325-.01.77-.553v-.057q0-.465-1.189-.956-.119-.408-.119-.635 0-.093.656-1.308.176-.62.176-.708zm-3.927-1.685q1.607.377 1.607.827l.057-.005q.672-.713 1.131-.91l.062-.005-.118.181v.057q.19-.124.356-.129 0 .031-.119.18v.058l.12-.062h.056v.056l-.057.12.176-.006q1.55-.124 1.55-.346.062 0 .176.057.63-.196.775-.202.775.543.775 1.261v.176q0 .258-.832 1.194l-.356.889q1.07.392 1.07 1.25v.176q0 1.194-1.251 2.201l-.419.073q-.45-.078-1.013-.378l.124 2.16q0 .6-1.075 1.5-.666-.983-.713-1.556.12-.197.12-.357l-.063-.232q.119 0 .119-.12v-1.637q0-4.383-.357-4.367v-.295l.062-.294q-.237.01-.237-.228l-.238.13q-.062 3.576-.062 5.374v1.054q0 .951-1.426 1.39-.29.01-.894-1.199 0-.15-.538-.212 0-.082 1.194-.335.119-.264.119-.76v-.584l.057-.295h-.057q-.693.021-.837.61-.362 1.23-1.37 2.212 0-.238-.119-.233 0 .083-.175.181v-.29q-.217.182-.419.187l-.057.005v-.062l.176-.357-.057.005q-.243.357-.837.378-.114-.057-.176-.052v-.062q.445-.01 1.308-1.56v-.12q-.713.026-1.07-1.364.047-.077 1.07-.563h.062l-.12.18.058.114q-.057 0-.057.057h.057q.837-.026.837-.728 0-.057-.062-.057-.388.129-.538.134l-.118.005q-.77.026-.77-1.028l.294.051q0-.118-.356-.222v-.062h.118q.114.052.181.052 0-.119-.18-.114v-.057q.857-.025 1.312-.16-.191-.522-.775-.734-.656-.279-.656-1.028v-.062q.62-.661 1.012-.672l-.062.12.062-.006q.114-.062.176-.062l-.057.12.12-.006-.063.119h.062q.817-.031 2.145-.718zM6.524 141.43v.676h.17v-.682Zm.393-.063q0 .222-.109.734h.109l.057-.568v-.171zm-1.752-3.364q-.232-.108-.341-.108v.454l1.075-.19v-.394h-.057q-.098 0-.677.238zm-.506-1.685q-.114-.056-.17-.056.113.289.113.45h.114q.428-.29.62-.295l.113.17h-.113v.057h.113q.393-.49.393-.574-1.028.243-1.183.248zm2.599-.5q.155.371.341.449.124-.005.227-.062.455.14.791.553 0 .62-1.188.64v.455q1.188-.212 1.188-.475.114-.76.114-1.075-.031-.734-.17-.734-1.303.16-1.303.248zm2.15-1.675q.532-.01 1.302 1.504v.279q-.424.248-.568.914-.414 2.269-1.189 2.284-.987.016-1.581.14v.625l.677-.072h.113q.445-.005 1.246.827 0 .49-1.98.6v.79l1.696-.031q1.291-.362 1.472-.362 1.018.62 1.018 1.282 0 .377-.511.687-1.173-.15-2.372-.13l-1.075.021q-1.612.026-4.527.755l-.114.005q-.62.01-.62-1.008 0-.661.341-.852l.507-.46.057-.005-.341.46q.056 0 .34-.233h.057l-.056.114v.056q.34-.232.454-.232-.17.284-.17.455.269-.005 2.315-.383v-.17l-.336-.331q-.103 0-.455.119-.816.015-1.018-1.168h.057q.3.052.341.052 0-.114-.34-.223v-.056l.17-.005.113.056v-.056q-.14-.109-.227-.109v-.057l.398.052q.232-.005 1.354-.14v-.62q-.44.005-1.638.367-.45.01-.905-.775.114-.294.114-.455-.79-2.17-.79-2.589v-.056q0-.801 1.126-1.09l.34-.006q.089-.005.285.445 2.336-.548 4.92-1.215zM7.434 150.9q-.052.718-.052 1.07v.371h.103v-1.446zm0-.75v.533h.051v-.538zm-.212-.211v1.23q0 .346-.057 1.07.16 0 .16-.699v-1.601zm-1.82.888h.052q.548-.79.75-1.354h.051v.052q-.108 1.013-1.87 3.028v.057q.77.305 1.607.45.424-.005.424-1.664.057-.605.057-1.122-.057-.584-.057-1.018h-.104q-.444.517-.91 1.571zm1.871-1.958q0 .661-.051.961h.103v-.961zm-.8-3.36q1.658.399 1.658.936.14.104.264.584-.584.253-.584 1.881v.59q1.08-.941 1.602-1.794v-.052q0-.237-.372-.532.16 0 1.07-.284 1.07.222 1.07.729 0 .304-.481.547-.75 1.065-.75 1.132h.052q.243-.248.91-1.137h.056q-.418 1.194-1.555 1.793-.124 0-.693.28-.056-.16-.108-.16-.176.108-.269.113l.109-.217q-.197.108-.43.114h-.16l.212-.218h-.051q-.093.057-.212.062v.533q.32-.217.64-.222 1.727.408 3.479 1.38.211 0 .372.743-.3 1.447-.853 1.458-.429-.098-.429-.207.16 0 .16-.109l-.429.01q0-.035.269-.273l-.48.01v-.057q.32-.056.32-.165l-.109-.052-.372.062q.104-.18.104-.325 0-.594-2.62-1.292v1.126q0 .43.051 1.013 0 .6-.91 1.406-.371.222-.531.227h-.16l-.486-.796q-.848-.785-1.013-.78v-.057h.103q.388.047.486.099v-.052q-.744-.259-1.287-.517v-.052h.052q.703.202 1.018.197 0-.093-1.018-.465-.502.65-.91.656-.103-.052-.16-.047.269-.3.269-.325l-.109.052-.424.01.104-.217h-.052q-.196.113-.429.113l.212-.268q-.362.165-.584.17l-.377.005v-.051q.796-.176 2.14-1.484.888-1.142 1.178-1.84-1.313.833-1.928 1.05-.372-.527-.59-.522v-.057l.27-.057q0-.16-.48-.15v-.056q.046 0 .428-.057v-.057q-.403-.098-.48-.098v-.052q.32-.005 1.762-.672.981-.408 1.498-.832h.109q.248-.005.8.465l-.051-.103v-.537q-.59-.605-.59-1.81.197 0 .642-.438zM8.198 165.352l-.051.543v.16h.051l.057-.49v-.218zm-.268-.486v.92l-.057.114.165-.005v-.651l-.057-.377zm-4.889-.403h.057v.109h-.057zm-.325-4.284.434-.005q.925-.015 1.359 1.494 0 .883-.868 1.049h-.109q-.76-.33-.76-.476-.005-.434-.873-1.338.383-.01.383-.119l-.109.005v-.108l.217-.005-.108-.16q.382-.063.382-.171l-.057-.109zm5.54-.8q0 .118-.817 1.043v.057q1.21-.295 1.359-.295v-.108q-.434-.558-.434-.698zm.051-.166v.109l.382-.057-.056-.109q.273-.005.273-.113H8.85q-.543.04-.543.17zm-2.822-1.416h.052v.109h-.052zm2.062-1.824q1.577.18 1.577 1.271 0 .228-.383.553.543-.067.817-.067l.325-.01q.946-.341 1.085-.341h.052q.424-.01.925.904v.217q0 .212-.326.548l-1.519-.083q-.165.057-.76.067v.057q.409-.01 1.463 1.385-.052.816-.326.822 0 .325.652.692l-.435 1.039h-.051q-.057-.186-.057-.217l-.109.005q-.268.904-.268 1.684 0 .708.485.698.31-.005 1.034-1.266h.057v.108q0 .15-.166.652h.057q.217-.393.217-.491h.052v.108q0 .098-.16.491v.052h.052l.056-.217h.052q0 .19.165.863v.217l-.273.439q.108.346.108.377 0 .295-.816.398-1.282.02-1.954-1.757-.108-.408-.108-.76v-.434q0-.568.274-1.741-.326-.186-.326-.264l.486-.718q-.052.005-.052-.052-1.09.13-1.845.305v.052l.269.052q.067 0 .543-.062.098.336.816.852-.15.362-.326.44 0-.052-.056-.052l-.052.325H8.74q-.052-.186-.052-.217l-.108.005v1.845q0 .693.108 1.406-.361.604-.816.615l-.269.005q-.165 0-.274-.755.109-.005.109-.113v-.109l-.377-.429h.051l.326.052.057-.114v-.92q0-1.793-.217-1.788-.088 0-.217-.211l.485-.77v-.052h-.051q-.109 0-1.2.398v.057q.766.062.766.635v.217q-.181.005-.274 1.69v.109h.051q.166-.863.166-1.416v-.109h.108q0 .16.057.377 0 1.82-1.033 2.951-.104-.057-.166-.052 0 .078-.16.166v-.217q-.15.165-.382.165l.108-.217h-.052q0 .212-.816.45h-.052v-.052q.59-.202 1.029-1.431.274-.698.274-1.36 0-1.09-.708-1.24l-.052.005v-.057q.15 0 .651-.61l-.382-.64q0-.326.76-.936.382-.578.382-.93-.946.341-1.194.347-.382.005-.491-.863l-.052.005q0 .217-.217.325-.351.005-.708-.041-.63.175-.868.18 0-.108.491-.335v-.057q0-.109-.165-.103-.31.15-.703.444l-.057.005q0-.052.6-.553v-.057l-.383.005v-.051q.274-.047.274-.17l-.326.004v-.052q.16-.005.16-.113l-.49.01q.274-.238.274-.44-.217-.077-.217-.16.976-.45 1.25-.454h.052q1.142.29 1.142 1.013l.486-.445v.052l-.109.165v.057l.326-.279v.057q0 .026-.109.165l.383-.227v.057q-.109.222-.109.325h.052q.971-.29 2.826-.537v-.057l-.49-.041q-.497.17-.595.17.052-.103.052-.165l-.217-.372h-.052l.052-.109v-.108q0-.062-.651-.533.165-.005.165-.113-.057 0-.057-.052l.217-.165.057-.109q-.057 0-.057-.057.197-.108.434-.113zm-4.94 3.452v.052H2.5v-.052zm.434.046v.052h-.108v-.052zm2.119 3.22v.052q-.145.475-.543.935l.052-.005.326-.274v.052q-.357.573-.595.827h.052l.49-.336v.051q0 .068-.49.662h.057q.051 0 .377-.28v.058q-1.137 2.025-1.628 2.036H3.15q-.868.015-.868-.905v-.217q0-.33.708-.935l.051.269q1.07-.977 2.119-1.99zM9.749 175.308l.144-.347-.19.099.092-.259-.175.073.098-.383-.197.067.021-.046q.031-.103.119-.29-.196-.18-.496-.418t-.553-.429q-.253-.191-.315-.233-.109-.072-.217-.155-.109-.087-.181-.155l-.073-.062.357-.098-.191-.093.263-.082-.16-.099.362-.155-.165-.113q.201-.068.434-.109.082-.015.16-.015.18 0 .346.072.165.067.62.305 1.25.661 1.731 1.095.078.047.12.176.04.124.066.269.026.124.052.222l.026.036.005.02q.016.099.016.26 0 .108-.021.221l-.01.021q-.037.191-.217.32-.14.094-.207.145-.088.083-.155.083-.052 0-.155-.042-.15-.051-.419-.082-.077-.01-.14-.01-.118 0-.206.03-.124.047-.258.083-.135.036-.233.057zM6.974 176q.067-.057.119-.568l.046-.517-.026.114q-.093.423-.129.625-.03.196-.03.3 0 .046.015.046zm-.32-.124q.02 0 .087-.036l.067-.036q.047-.093.052-.336 0-.238-.041-.476-.036-.237-.124-.32l.005.17q.005.176.005.404 0 .563-.041.614-.01.01-.01.016zm-.166 1.313h-.005q-.067 0-.222-.186-.15-.181-.305-.419-.15-.238-.207-.393-.031-.098-.031-.17 0-.062.041-.104.078-.077.078-.227 0-.041-.02-.062-.016-.026-.063-.046-.01-.01-.01-.016 0-.01.046-.026.15-.03.16-.14.016-1.234.016-2.32l-.005-.63v-.227l-.605.687q-.744.847-.91 1.183-.206.455-.583.786-.372.33-.693.48-.201.099-.351.099-.067 0-.186-.042-.119-.046-.28-.408-.113-.253-.17-.537-.041-.192-.041-.342 0-.077.02-.211.026-.14.197-.15h.047q.217 0 .35-.047.14-.051.352-.279.14-.14.905-.95 1.25-1.329 1.643-1.85v-.006q0-.119.072-.212-.134.031-.268.068-1.163.294-1.608.48-.186.078-.33.078-.088 0-.222-.052-.135-.057-.249-.227-.113-.176-.186-.347-.062-.14-.113-.211-.093-.114-.093-.259 0-.176.124-.47.046-.093.294-.253.455-.3 1.137-.646.305-.166.352-.197l-.274.264.439-.093-.403.212.418-.073q-.33.166-.33.248 0 .037.088.037.098 0 1.028-.166 1.69-.3 3.214-.61.75-.154.79-.19.047-.037.068-.047.026-.01.047-.01.04 0 .087.015.052.016.124.031.13.041.388.202.264.16.49.346.233.18.285.294.036.088.078.295.02.093.02.186 0 .119-.041.29-.041.17-.295.289-.14.062-.377.062-.18 0-.424-.036-.304-.047-.682-.047-.516 0-1.354.114l-.005.005q-.077.108-.315.377.176.077.233.145.025.03.025.072 0 .083-.082.207-.068.108-.114.253-.047.14-.072.279-.026.134-.037.227l-.01.093-.005.042q-.01.046-.016.16-.005.108-.01.31-.005.201-.005.522 0 .315.01.77.01.45.031 1.064.026.61.073 1.4v.016q0 .259-.155.486-.155.227-.43.377-.268.15-.392.264-.109.093-.186.119zm-1.147-5.271q.067 0 .387-.43.099-.128.17-.237-.015-.067-.04-.103l-.223.289q-.3.398-.3.47zm-1.266 1.24q.015 0 .067-.02.057-.022.186-.11.13-.087.253-.211.13-.13.197-.274.077-.17.248-.419.175-.253.366-.496.192-.248.336-.418l.093-.114q-.005 0-.01-.005-.093.088-.29.305-.542.604-1.172 1.349-.295.351-.295.392 0 .021.02.021zm1.715-2.718.021-.037-.041.01q.01.011.02.027zM7.033 185.179v.356l.062-.005v-.356zm-.475-.17q.062.102.119.531l.18-.005q-.118-.532-.3-.527zm-.713-5.344.118-.005q.243-.005.476.051.232-.062.475-.067h.062q.615.636 1.189.75v.18q0 .083-.357.362h-.062v-.176H7.69v.476h-.062q0-.17-.237-.29v1.19l.062.412q1.845-.625 2.201-.63.951.274.951.817v.118q-.119.657-.594.667l-.476.005q-.418.01-1.426.326H7.99q-.222.005-.537-.228v1.845q2.186-.041 3.39-.475 1.193.506 1.193 1.343 0 .15-.475.548-1.189-.098-2.263-.083l-.595.01q-2.537.047-6.015.941h-.119q-.532.01-.594-1.24v-.057q0-.3.95-1.028v.056q-.356.393-.356.424h.062l.414-.305h.062q0 .031-.238.3.429-.243.532-.248-.175.305-.175.424l.237-.005v-.357q0-2.858-.3-2.852-.072 0-.294-.352l.357-.005v-.062l-.12.005v-.062l.176-.005v-.057l-.056-.119.356-.067-.057-.113.12-.062.118-.005q1.08-.016 1.426 1.167-.119 1.82-.3 2.683l.838-.135-.3-.532q.475-.005.475-.186v-.832q0-3.452-.237-3.447l-.357-.114v-.119q.538-.656.538-.78z" style="font-style:normal;font-variant:normal;font-weight:400;font-stretch:normal;font-size:10.58333302px;font-family:HanyiSentyPagoda;-inkscape-font-specification:&quot;HanyiSentyPagoda, Normal&quot;;font-variant-ligatures:normal;font-variant-caps:normal;font-variant-numeric:normal;font-feature-settings:normal;text-align:start;writing-mode:lr-tb;text-anchor:start;stroke-width:.09244827" transform="matrix(2.34613 0 0 2.34613 -.934 -233.294)"/></g></g></svg>